<svg width="42" height="36" viewBox="0 0 42 36" fill="none" xmlns="http://www.w3.org/2000/svg">
<path d="M18.007 3.83325C21.8036 3.83325 24.9249 6.81662 25.0833 10.5969L25.0463 10.5969C25.0508 10.7068 25.0296 10.8162 24.9846 10.9166L25.2058 10.9166C26.9299 10.9166 28.7353 12.1116 29.4592 14.9963L29.5378 15.3367L30.6271 24.1125C31.411 29.7097 28.3487 32.0636 24.1713 32.1633L23.8912 32.1666L12.1471 32.1666C7.90168 32.1666 4.63027 30.6196 5.34956 24.4933L5.39861 24.1125L6.50041 15.3367C7.0437 12.2301 8.86761 11.0048 10.625 10.9212L10.8199 10.9166L10.9307 10.9166C10.912 10.8108 10.912 10.7026 10.9307 10.5969C11.0891 6.81662 14.2104 3.83325 18.007 3.83325ZM13.8874 15.6331C13.1959 15.6331 12.6354 16.21 12.6354 16.9217C12.6354 17.6334 13.1959 18.2104 13.8874 18.2104C14.5789 18.2104 15.1394 17.6334 15.1394 16.9217L15.1297 16.7601C15.0524 16.1247 14.5257 15.6331 13.8874 15.6331ZM22.0882 15.6331C21.3968 15.6331 20.8362 16.21 20.8362 16.9217C20.8362 17.6334 21.3968 18.2104 22.0882 18.2104C22.7797 18.2104 23.3403 17.6334 23.3403 16.9217C23.3403 16.21 22.7797 15.6331 22.0882 15.6331ZM17.9515 5.6783C15.2257 5.6783 13.0159 7.88042 13.0159 10.5969C13.0346 10.7026 13.0346 10.8108 13.0159 10.9166L22.9487 10.9166C22.9093 10.8145 22.8884 10.7062 22.887 10.5969C22.887 7.88042 20.6773 5.6783 17.9515 5.6783Z" fill="white" style="fill:white;fill-opacity:1;"/>
<ellipse cx="31" cy="16.799" rx="10" ry="12.622" transform="rotate(0.868518 31 16.799)" fill="#E58411" style="fill:#E58411;fill:color(display-p3 0.8980 0.5176 0.0667);fill-opacity:1;"/>
<path d="M30.7701 23.373C33.1795 23.4095 34.6697 21.1166 34.7348 17.1306C34.7994 13.1741 33.3601 10.8841 30.9599 10.8477C28.5551 10.8113 27.0611 13.0509 26.9964 17.0133C26.9267 20.9875 28.356 23.3305 30.7701 23.373ZM30.8022 21.2529C29.7027 21.2363 29.0127 19.8318 29.0596 17.0446C29.1059 14.2987 29.8334 12.9275 30.9281 12.9441C32.0183 12.9606 32.7085 14.3533 32.6668 17.0993C32.6293 19.8867 31.897 21.2695 30.8022 21.2529Z" fill="white" style="fill:white;fill-opacity:1;"/>
</svg>
